<svg data-bbox="60.412 60.412 79.176 79.176" xmlns="http://www.w3.org/2000/svg" width="200" height="200" viewBox="60.412 60.412 79.176 79.176" data-type="color" aria-labelledby="comp-ka9uptpv3-svgtitle"><path fill="#BA00FF" d="M100 60.412c-21.829 0-39.588 17.759-39.588 39.588S78.171 139.588 100 139.588s39.588-17.759 39.588-39.588S121.829 60.412 100 60.412zm32.959 53.472a1.483 1.483 0 00-.7-.609l2.969-10.118c.036.003.071.014.107.014.2 0 .402-.04.595-.124l.552-.24a36.3 36.3 0 01-3.003 11.957l-.52-.88zm-24.785 17.861c-.075.091-.113.196-.163.297H94.022a1.47 1.47 0 00-.302-.474l-9.706-10.231 6.506-9.39c.141.044.288.07.441.07h19.108c.167 0 .329-.03.481-.082l6.57 8.939-8.946 10.871zm-40.726-15.046a36.33 36.33 0 01-4.005-14.985l1.772.684c.157.06.318.083.479.089l3.28 11.983c-.124.1-.241.211-.331.352l-1.195 1.877zm2.37-2.542l-3.259-11.907c.179-.115.34-.262.459-.452l7.375-11.747c.063-.101.1-.215.137-.327l9.047 2.714c.007.125.019.251.059.374l5.905 18.173c.054.167.14.316.244.449l-6.466 9.333-12.738-6.474a1.467 1.467 0 00-.763-.136zm16.135-46.116l-8.456 5.582a1.48 1.48 0 00-.405-.245l-1.544-.583a36.696 36.696 0 0110.288-6.541l-.104.806c-.047.355.042.696.221.981zm-7.936 7.079c.061-.255.03-.505-.037-.743l8.708-5.748c.046.018.083.05.131.063l13.351 3.637c.119.032.241.046.364.049v7.252a1.49 1.49 0 00-.897.282l-15.459 11.23c-.16.116-.281.266-.38.427l-9.04-2.712 3.259-13.737zm51.47 13.239l-2.768-12.107.793-.351c5.55 6.328 8.956 14.574 9.077 23.604l-.618.269-6.484-11.415zm-5.104-14.34c-.037.016-.063.047-.098.066l-9.212-6.167c.055-.187.081-.383.057-.586l-.078-.68a36.74 36.74 0 0110.264 6.954l-.933.413zm-10.362-5.071c.21-.054.39-.16.55-.288l9.076 6.076a1.486 1.486 0 00-.115.982l3.007 13.154-9.348 2.617a1.45 1.45 0 00-.34-.346L101.43 79.938v-7.732l12.591-3.258zm-5.037 40.082H92.046l-5.234-16.109 13.703-9.956 13.703 9.956-5.234 16.109zm8.801 11.236l-6.511-8.86c.092-.126.166-.267.216-.421l5.905-18.173c.05-.155.074-.313.073-.47l9.359-2.62 7.21 12.693c.093.163.219.293.357.406l-3.042 10.37a1.47 1.47 0 00-.372.13l-13.195 6.945zm-5.884-54.869l.113.985-11.442 2.96-11.714-3.191.136-1.059a36.462 36.462 0 0111.004-1.693c4.168 0 8.169.71 11.903 1.998zm-38.696 9.707l1.602.605-3.076 12.964-6.589 10.495-1.705-.658c.364-9.022 4.006-17.209 9.768-23.406zm-4.077 44.518l1.307-2.052 11.371 5.779 8.817 9.295-1.877 2.179c-8.169-2.647-15.084-8.092-19.618-15.201zm22.81 16.073l1.83-2.124c.161-.187.248-.406.302-.632h13.805c.05.297.168.584.396.812l1.512 1.512a36.48 36.48 0 01-9.783 1.338 36.627 36.627 0 01-8.062-.906zm21.028-1.475l-1.624-1.624 8.078-9.815 11.69-6.153.774 1.311c-4.186 7.411-10.876 13.224-18.918 16.281z" data-color="1"/></svg>