<?xml version="1.0" encoding="utf-8"?>
<!-- Generator: Adobe Illustrator 24.1.0, SVG Export Plug-In . SVG Version: 6.00 Build 0)  -->
<svg version="1.1" id="Layer_1" xmlns="http://www.w3.org/2000/svg" xmlns:xlink="http://www.w3.org/1999/xlink" x="0px" y="0px"
	 viewBox="0 0 200 200" style="enable-background:new 0 0 200 200;" xml:space="preserve">
<style type="text/css">
	.st0{fill:#FFFFFF;stroke:#FFFFFF;stroke-miterlimit:10;}
</style>
<path class="st0" d="M176,123.9l24-4.2l-13.2-77.1l-24,4.2l1.9,10.6l-26.7,2.7c-9.3-6-29.8-18.8-33.9-18.8c-1.7,0-5.8,1.9-10.8,4.4
	c-1.6-0.7-9.3-4-12.9-4c-3.1,0-15.9,8.7-26,16.3l-18.6-2.3l1.5-9.1l-24.2-4.1L0,119.7l24,4.2l2.3-13.2c2.3,0.6,4.4,1.5,7,2.5
	c3.9,1.7,8.1,3.5,14,4.2l-3.3,6c-2.9,5.8-0.6,12.8,5.2,15.9l36.2,18.1c1.7,0.8,3.5,1.2,5.2,1.2c4.2,0,8.3-2.3,10.4-6.6l7.9-15.9
	l13.8,8.3c1.9,1.2,4.1,1.7,6,1.7c4.1,0,7.7-1.9,10-5.6l16.3-26.4l18.6-3.1L176,123.9z M182.9,48.2l11.6,67.9l-14.8,2.5l-11.5-67.9
	L182.9,48.2z M5.4,116l11.6-67.9l14.7,2.6l-11.6,67.9L5.4,116z M48.1,125.9l4.2-7.7c3.1,0.4,6.8,0.6,10.4,1.2l-9.8,16.8l-1.7-0.8
	C48.1,133.4,46.5,129.4,48.1,125.9z M85.8,122.4l6.6,4.1l-13.6,22.6l-10-5L82.2,122C83.7,122,85.2,122.2,85.8,122.4z M64.4,141.8
	l-7.1-3.5L68,120.1c3.1,0.4,6.2,0.8,8.9,1.2C76.9,121.2,64.4,141.8,64.4,141.8z M96.9,150.1c-1.7,3.5-5.8,4.8-9.3,3.1l-4.4-2.1
	L96.5,129l8.5,5.2L96.9,150.1z M134.9,138.5c-1.9,3.3-6.4,4.2-9.7,2.3l-37.8-23.1H87c-0.4,0-2.9-0.4-6.8-1l-0.4-0.4l-0.2,0.2
	c-7.9-1.2-20.4-2.7-28.3-3.3c-6.8-0.4-11.4-2.3-16.1-4.2c-2.7-1.2-5.2-2.1-8.1-2.9l7.7-45.4l20.8,2.7l0.8-0.6
	c9.8-7.3,22.1-15.5,24-15.9c1.2,0,4.4,1.2,7.3,2.3c-5,2.9-10.2,6-13.6,8.1l-0.8,0.5l-0.2,0.6C73,58.8,69.7,71.2,68.4,79
	c-0.8,5-1.2,9.7,1,12.8c1.2,1.7,3.1,2.7,5.8,2.9c4.4,0.6,12,1.5,13.2-5.8c0.6-3.9,3.5-15.2,4.2-18.8l10-5l50.8,29.3
	c3.3,1.9,4.2,6.4,2.3,9.7l-1.9,2.9l-32.5-19.8l-2.5,4.1l32.7,19.8l-4.8,7.7l-32.5-19.6l-2.5,4.1l32.5,19.6l-4.8,7.7L107,110.9
	l-2.5,4.1l32.3,19.6L134.9,138.5z M158.5,109.2l1.7-2.7c3.5-5.6,1.5-12.8-4.1-16.1L103,59.8L88.7,67l-0.4,1.2
	c-0.2,0.6-3.9,15.5-4.8,20.2c-0.4,1.9-0.8,2.9-7.9,1.9c-1.9-0.4-2.5-1-2.7-1.2c-1.2-1.5-0.6-5.4-0.2-9.1c1-6.4,3.5-16.3,4.2-19.2
	c11-6.8,23.8-14.4,26-14.4c2.7,0.4,18.4,9.7,32.2,18.4l0.8,0.4l28.9-2.9l7.5,44.6L158.5,109.2L158.5,109.2z"/>
</svg>
