<svg data-bbox="20 20 160 160" viewBox="20 20 160 160" height="200" width="200" xmlns="http://www.w3.org/2000/svg" data-type="color" aria-labelledby="comp-ka9uptq41-svgtitle"><path d="M139 113l12.4-2.2-6.8-39.8-12.4 2.2 1 5.5-13.8 1.4c-4.8-3.1-15.4-9.7-17.5-9.7-.9 0-3 1-5.6 2.3-.8-.4-4.8-2.1-6.6-2.1-1.6 0-8.2 4.5-13.4 8.4l-9.6-1.2.8-4.7L55 71l-6.8 39.8 12.4 2.2 1.2-6.8c1.2.3 2.3.8 3.6 1.3 2 .9 4.2 1.8 7.2 2.2l-1.7 3.1c-1.5 3-.3 6.6 2.7 8.2l18.7 9.3c.9.4 1.8.6 2.7.6 2.2 0 4.3-1.2 5.4-3.4l4.1-8.2 7.1 4.3c1 .6 2.1.9 3.1.9 2.1 0 4-1 5.2-2.9l8.4-13.6 9.6-1.6 1.1 6.6zm3.6-39.1l6 35-7.6 1.3-6-35 7.6-1.3zm-91.6 35l6-35 7.6 1.3-6 35-7.6-1.3zm22 5.1l2.2-4c1.6.2 3.5.3 5.4.6l-5.1 8.7-.9-.4c-1.6-1-2.4-3.1-1.6-4.9zm19.5-1.8l3.4 2.1-7 11.7-5.2-2.6 6.9-11.4c.8 0 1.6.1 1.9.2zm-11.1 10l-3.7-1.8 5.6-9.4c1.6.2 3.2.4 4.6.6l-6.5 10.6zm16.8 4.3c-.9 1.8-3 2.5-4.8 1.6l-2.3-1.1 6.9-11.4 4.4 2.7-4.2 8.2zm19.6-6c-1 1.7-3.3 2.2-5 1.2l-19.5-11.9h-.2c-.2 0-1.5-.2-3.5-.5l-.2-.2-.1.1c-4.1-.6-10.5-1.4-14.6-1.7-3.5-.2-5.9-1.2-8.3-2.2-1.4-.6-2.7-1.1-4.2-1.5l4-23.4 10.7 1.4.4-.3c5.1-3.8 11.4-8 12.4-8.2.6 0 2.3.6 3.8 1.2-2.6 1.5-5.3 3.1-7 4.2l-.4.2-.1.3c-.1.2-1.8 6.6-2.5 10.6-.4 2.6-.6 5 .5 6.6.6.9 1.6 1.4 3 1.5 2.3.3 6.2.8 6.8-3 .3-2 1.8-7.8 2.2-9.7l5.2-2.6 26.2 15.1c1.7 1 2.2 3.3 1.2 5l-1 1.5L110.8 94l-1.3 2.1 16.9 10.2-2.5 4-16.8-10.1-1.3 2.1 16.8 10.1-2.5 4-16.7-10.1-1.3 2.1 16.7 10.1-1 2zm12.2-15.1l.9-1.4c1.8-2.9.8-6.6-2.1-8.3l-27.4-15.8-7.4 3.7-.2.6c-.1.3-2 8-2.5 10.4-.2 1-.4 1.5-4.1 1-1-.2-1.3-.5-1.4-.6-.6-.8-.3-2.8-.1-4.7.5-3.3 1.8-8.4 2.2-9.9 5.7-3.5 12.3-7.4 13.4-7.4 1.4.2 9.5 5 16.6 9.5l.4.2 14.9-1.5 3.9 23-7.1 1.2z" fill="#000010" data-color="1"/></svg>